<svg version="1.1" id="Слой_1" xmlns="http://www.w3.org/2000/svg" xmlns:xlink="http://www.w3.org/1999/xlink" x="0px" y="0px"
	 viewBox="0 0 24 24" style="enable-background:new 0 0 24 24;" xml:space="preserve">
<style type="text/css">
	.st0{fill:#906D60;}
	.st1{fill:none;stroke:#FFFFFF;stroke-width:2;stroke-linecap:round;stroke-linejoin:round;}
</style>
<title>ic_parameter_round</title>
<desc>Created with Sketch.</desc>
<g id="Blocks-and-states">
	<g id="Plugins.Setup-a-variable" transform="translate(-72.000000, -65.000000)">
		<g id="ic_parameter_round" transform="translate(72.000000, 65.000000)">
			<g id="ic_twitter_round">
				<circle id="Oval-601" class="st0" cx="12" cy="12" r="12"/>
			</g>
			<path id="Rectangle-1183" class="st1" d="M8.7,18.7H8.3c-1.3,0-2.3-1-2.3-2.3c0,0,0-0.3,0-1.7S4,12,4,12s2-1.3,2-2.7s0-1.7,0-1.7
				c0-1.3,1-2.3,2.3-2.3h0.3"/>
			<path id="Rectangle-1183_1_" class="st1" d="M15.3,18.7h0.3c1.3,0,2.3-1,2.3-2.3c0,0,0-0.3,0-1.7s2-2.7,2-2.7s-2-1.3-2-2.7
				s0-1.7,0-1.7c0-1.3-1-2.3-2.3-2.3h-0.3"/>
		</g>
	</g>
</g>
</svg>