<svg version="1.1" id="Layer_1" xmlns="http://www.w3.org/2000/svg" xmlns:xlink="http://www.w3.org/1999/xlink" x="0px" y="0px"
	 viewBox="0 0 36 36" style="enable-background:new 0 0 36 36;" xml:space="preserve">
<style type="text/css">
	.st0{fill:#053748;}
	.st1{display:none;fill:none;stroke:#FFFFFF;stroke-width:2;}
	.st2{display:none;opacity:0.6;fill:none;stroke:#FFFFFF;stroke-width:2;enable-background:new    ;}
	.st3{fill:#FFFFFF;stroke:#FCFCFC;stroke-width:0.75;stroke-miterlimit:10;}
</style>
<title>7EC9629B-6799-4A72-9556-25BBFDD1DD2D</title>
<desc>Created with sketchtool.</desc>
<g id="Symbols">
	<g id="ic_routing_round">
		<g id="ic_twitter_round">
			<circle id="Oval-601" class="st0" cx="18" cy="18" r="18"/>
			<circle id="Oval" class="st1" cx="10" cy="10" r="2"/>
			<circle id="Oval_1_" class="st1" cx="26" cy="26" r="2"/>
			<path id="Path-2" class="st2" d="M12,10h10c2.2,0,4,1.8,4,4l0,0c0,2.2-1.8,4-4,4h-8c-2.2,0-4,1.8-4,4l0,0c0,2.2,1.8,4,4,4h10.3"
				/>
		</g>
	</g>
</g>
<path class="st3" d="M8.8,10.5l6.7,8v5.6c0,0.2,0.1,0.4,0.4,0.5l3.8,1.8c0.1,0.1,0.1,0.1,0.2,0.1c0.1,0,0.2,0,0.4-0.1
	c0.1-0.1,0.2-0.4,0.2-0.5v-7.4l6.7-8c0.1-0.1,0.1-0.4,0.1-0.6c-0.1-0.1-0.4-0.4-0.5-0.4H9.3C9,9.5,8.9,9.6,8.8,9.9
	C8.7,10.1,8.8,10.3,8.8,10.5z M10.5,10.7h14.8L19.2,18c-0.1,0.1-0.1,0.2-0.1,0.4V25l-2.6-1.2v-5.5c0-0.1-0.1-0.2-0.1-0.4L10.5,10.7z
	"/>
</svg>